<svg width="600" height="780" viewBox="0 0 600 780" fill="none" xmlns="http://www.w3.org/2000/svg">
<path d="M733.252 345.354C725.597 268.531 697.404 195.184 651.635 133.01C655.79 125.976 658.002 117.967 658.052 109.8C658.052 97.4142 653.128 85.536 644.373 76.778C635.614 68.0199 623.735 63.1 611.352 63.1C604.789 63.1154 598.304 64.5268 592.33 67.2404C564.552 41.9392 533.589 20.3785 500.223 3.10581C497.38 -6.51331 491.513 -14.9591 483.489 -20.9774C475.465 -26.9957 465.717 -30.265 455.685 -30.3C448.064 -30.2392 440.575 -28.2871 433.893 -24.6182C390.659 -38.6731 345.482 -45.8434 300.021 -45.8667C282.849 -45.8235 265.693 -44.7371 248.651 -42.6133C225.594 -64.4398 195.128 -76.7257 163.38 -77C100.414 -77 46.1335 -27.7783 31.0653 41.4312C-28.0873 59.5819 -70.1167 121.304 -70.1167 192.428C-70.089 198.911 -69.6836 205.387 -68.9023 211.824C-126.498 231.22 -166.971 291.743 -166.971 361.791C-167.487 389.004 -161.115 415.901 -148.446 439.988C-135.777 464.074 -117.223 484.565 -94.5091 499.559C-110.297 526.172 -118.602 556.562 -118.544 587.509C-118.544 673.874 -57.2431 744.141 18.0982 744.141C22.814 744.133 27.5247 743.826 32.2016 743.222C48.6396 810.035 101.737 857 163.38 857C195.128 856.723 225.594 844.44 248.651 822.611C265.693 824.738 282.849 825.822 300.021 825.864C345.482 825.841 390.659 818.673 433.893 804.616C440.575 808.285 448.064 810.239 455.685 810.3C465.717 810.266 475.465 806.993 483.489 800.974C491.513 794.959 497.38 786.51 500.223 776.892C533.589 759.62 564.552 738.061 592.33 712.759C598.304 715.471 604.789 716.882 611.352 716.897C623.735 716.897 635.614 711.979 644.373 703.222C653.128 694.465 658.052 682.585 658.052 670.198C658.002 662.033 655.79 654.022 651.635 646.988C697.404 584.813 725.597 511.47 733.252 434.646C742.969 431.888 751.521 426.039 757.614 417.982C763.703 409.925 767 400.099 767 390C767 379.897 763.703 370.075 757.614 362.018C751.521 353.957 742.969 348.108 733.252 345.354ZM611.352 623.498C609.136 623.563 606.932 623.786 604.751 624.167L509.793 475.038C508.393 472.839 506.462 471.027 504.177 469.766C501.892 468.508 499.33 467.843 496.718 467.831H300.021V405.568H676.482C678.632 411.663 682.021 417.248 686.437 421.97C690.853 426.693 696.196 430.454 702.136 433.011C694.888 502.959 669.284 569.749 627.912 626.613C622.631 624.567 617.014 623.513 611.352 623.498ZM455.685 716.897C449.438 716.89 443.256 718.143 437.505 720.589L300.021 555.596V498.967H488.174L577.104 638.708C570.588 645.6 566.383 654.357 565.083 663.752C563.779 673.147 565.441 682.716 569.834 691.119C547.699 711.071 523.399 728.477 497.388 743.018C493.571 735.207 487.64 728.615 480.269 724C472.899 719.382 464.382 716.924 455.685 716.897ZM437.505 59.4107C448.46 64.0607 460.782 64.326 471.926 60.1514C483.07 55.9768 492.187 47.6814 497.388 36.9789C523.399 51.5214 547.699 68.9295 569.834 88.8784C565.441 97.2842 563.779 106.853 565.083 116.248C566.383 125.644 570.588 134.398 577.104 141.291L488.174 281.033H300.021V224.402L437.505 59.4107ZM627.912 153.386C669.296 210.269 694.9 277.081 702.136 347.05C696.2 349.6 690.861 353.349 686.445 358.061C682.033 362.776 678.64 368.348 676.482 374.432H300.021V312.165H496.718C499.338 312.169 501.915 311.507 504.212 310.246C506.508 308.988 508.451 307.169 509.859 304.959L604.812 155.83C612.614 157.271 620.665 156.4 627.974 153.324L627.912 153.386ZM626.916 109.8C626.916 112.879 626.004 115.888 624.292 118.448C622.585 121.008 620.153 123.003 617.307 124.182C614.464 125.36 611.333 125.668 608.313 125.067C605.293 124.467 602.52 122.984 600.342 120.807C598.165 118.63 596.684 115.856 596.084 112.837C595.484 109.817 595.792 106.687 596.969 103.843C598.146 100.998 600.142 98.5672 602.701 96.8566C605.263 95.1459 608.271 94.2333 611.352 94.2333C615.48 94.2333 619.438 95.8732 622.358 98.7925C625.277 101.712 626.916 105.671 626.916 109.8ZM455.685 0.833328C458.766 0.833328 461.774 1.74633 464.336 3.45694C466.894 5.16718 468.891 7.59849 470.068 10.4428C471.245 13.2872 471.553 16.4173 470.953 19.437C470.352 22.4564 468.871 25.23 466.694 27.4071C464.517 29.5842 461.743 31.0667 458.724 31.6675C455.704 32.2682 452.573 31.9597 449.73 30.7818C446.883 29.6034 444.452 27.6082 442.744 25.0484C441.032 22.4883 440.121 19.4789 440.121 16.4C440.121 12.2715 441.759 8.31188 444.679 5.39253C447.599 2.47318 451.557 0.833328 455.685 0.833328ZM411.728 1.26907C409.508 7.26814 408.623 13.6776 409.127 20.0531C409.635 26.4287 411.52 32.6181 414.655 38.193L300.021 175.771V79.6473C300.179 46.533 290.712 14.086 272.782 -13.7527C281.699 -14.4064 290.793 -14.7333 300.021 -14.7333C337.823 -14.6622 375.426 -9.27537 411.728 1.26907ZM163.38 825.864C112.462 825.864 68.9071 782.464 59.8318 722.658C59.7287 722.335 59.6095 722.02 59.4741 721.708C71.8799 712.04 87.1135 706.702 102.842 706.517C114.679 706.864 126.28 709.906 136.763 715.417C147.245 720.924 156.333 728.75 163.333 738.303L187.648 718.843C177.763 705.614 164.982 694.815 150.283 687.285C135.584 679.751 119.356 675.678 102.842 675.382C87.7367 675.612 72.8528 679.055 59.179 685.477C45.5049 691.9 33.3533 701.156 23.531 712.632C21.7253 712.759 19.8727 713.005 18.0982 713.005C-40.0734 713.005 -87.4111 656.703 -87.4111 587.509C-87.5438 557.127 -77.6999 527.541 -59.3912 503.294C-58.4126 501.871 -57.6809 500.29 -57.2278 498.625C-32.3214 462.82 -1.65536 443.253 30.2871 443.253C65.7628 443.253 99.7132 467.289 125.896 510.935L152.593 494.902C120.572 441.526 77.1261 412.121 30.2871 412.121C-9.75014 412.121 -47.2338 433.758 -77.2925 473.312C-95.7478 461.255 -110.814 444.68 -121.061 425.162C-131.307 405.645 -136.394 383.831 -135.838 361.791C-136.825 337.635 -130.832 313.703 -118.575 292.865C-106.318 272.024 -88.3158 255.156 -66.7231 244.28C-54.9582 258.81 -40.2262 270.662 -23.5123 279.04C-6.79849 287.418 11.5117 292.132 30.1936 292.864C32.544 292.864 34.8632 292.786 37.2917 292.63C81.2514 289.734 122.176 260.36 152.483 209.94L125.834 193.86C100.927 235.298 68.7359 259.333 35.2525 261.543C21.5261 261.799 7.90617 259.091 -4.67931 253.605C-17.2644 248.12 -28.5193 239.986 -37.6761 229.756C-36.1378 226.845 -35.5912 223.511 -36.1194 220.261C-37.9254 211.113 -38.8583 201.814 -38.906 192.49C-39.9015 168.112 -33.7801 143.971 -21.2889 123.013C-8.79805 102.055 9.52298 85.1857 31.4388 74.4636C51.6336 93.3903 78.1713 104.089 105.846 104.46C107.216 104.46 108.602 104.46 109.987 104.367C125.09 103.627 139.855 99.6259 153.266 92.6396C166.677 85.6533 178.417 75.8465 187.679 63.8938L163.38 44.2798C156.89 52.7729 148.64 59.7618 139.195 64.7675C129.751 69.7732 119.336 72.6772 108.664 73.2806C90.9607 73.8867 73.6029 68.2803 59.5983 57.4336C59.5983 57.0909 59.8476 56.7952 59.9099 56.4371C69.2806 -2.84057 112.789 -45.8667 163.38 -45.8667C221.551 -45.8667 268.889 10.4378 268.889 79.6473V700.368C268.889 769.562 221.551 825.864 163.38 825.864ZM272.782 793.813C290.716 765.977 300.179 733.527 300.021 700.414V604.227L414.655 741.807C411.516 747.383 409.631 753.575 409.123 759.955C408.619 766.331 409.508 772.742 411.728 778.746C375.426 789.287 337.823 794.667 300.021 794.733C290.793 794.733 281.699 794.406 272.782 793.813ZM455.685 779.165C452.607 779.165 449.599 778.253 447.037 776.542C444.479 774.83 442.483 772.4 441.305 769.558C440.128 766.712 439.817 763.581 440.421 760.563C441.021 757.544 442.502 754.767 444.679 752.59C446.856 750.414 449.63 748.933 452.649 748.333C455.669 747.729 458.801 748.041 461.643 749.217C464.486 750.394 466.917 752.39 468.629 754.952C470.341 757.509 471.253 760.52 471.253 763.601C471.253 767.727 469.614 771.689 466.694 774.607C463.774 777.526 459.816 779.165 455.685 779.165ZM611.352 685.766C608.271 685.766 605.263 684.854 602.701 683.143C600.142 681.431 598.146 679.001 596.969 676.155C595.792 673.313 595.484 670.182 596.084 667.163C596.684 664.144 598.165 661.368 600.342 659.191C602.52 657.014 605.293 655.534 608.313 654.93C611.333 654.33 614.464 654.638 617.307 655.818C620.153 656.995 622.585 658.991 624.292 661.552C626.004 664.11 626.916 667.121 626.916 670.198C626.916 674.328 625.277 678.285 622.358 681.208C619.438 684.127 615.48 685.766 611.352 685.766ZM720.316 405.568C717.238 405.568 714.226 404.652 711.668 402.941C709.106 401.234 707.113 398.799 705.932 395.957C704.755 393.111 704.448 389.981 705.048 386.962C705.648 383.943 707.133 381.17 709.31 378.993C711.487 376.817 714.261 375.332 717.281 374.732C720.296 374.132 723.428 374.44 726.274 375.617C729.117 376.797 731.548 378.789 733.26 381.351C734.968 383.912 735.883 386.919 735.883 390C735.883 394.127 734.241 398.088 731.321 401.007C728.402 403.926 724.443 405.568 720.316 405.568Z" fill="#1E1E1E"/>
</svg>
