<svg width="314" height="103" viewBox="0 0 314 103" fill="none" xmlns="http://www.w3.org/2000/svg">
<rect width="314" height="77" fill="#1E1E1E"/>
<path d="M19.072 42V5.808H28.48L45.712 27.936H45.808V5.808H55.216V42H45.808L28.576 19.824H28.48V42H19.072ZM86.4573 30.24V31.152H68.0733C68.0733 32.944 68.5373 34.32 69.4653 35.28C70.3933 36.208 71.7533 36.672 73.5453 36.672C74.4733 36.672 75.2733 36.496 75.9453 36.144C76.6493 35.792 77.2413 35.216 77.7213 34.416L86.1213 34.368C85.4173 37.312 83.8493 39.456 81.4173 40.8C79.0173 42.144 76.4093 42.816 73.5933 42.816C69.5293 42.816 66.1373 41.712 63.4173 39.504C60.6973 37.264 59.3373 34.016 59.3373 29.76C59.3373 25.664 60.6013 22.448 63.1293 20.112C65.6893 17.776 68.9693 16.608 72.9693 16.608C77.2573 16.608 80.5693 17.84 82.9053 20.304C85.2733 22.768 86.4573 26.096 86.4573 30.288V30.24ZM68.2173 26.112H78.3453C78.1213 24.96 77.5293 24.032 76.5693 23.328C75.6413 22.624 74.5853 22.272 73.4013 22.272C72.1213 22.272 71.0013 22.608 70.0413 23.28C69.0813 23.92 68.4733 24.88 68.2173 26.16V26.112ZM90.3141 17.376H99.0501V30.528C99.0501 32.128 99.3221 33.424 99.8661 34.416C100.442 35.408 101.626 35.904 103.418 35.904C105.21 35.904 106.378 35.408 106.922 34.416C107.498 33.424 107.786 32.144 107.786 30.576V17.376H116.522V32.208C116.522 36.304 115.258 39.104 112.73 40.608C110.234 42.08 107.13 42.816 103.418 42.816C99.7381 42.816 96.6341 42.08 94.1061 40.608C91.5781 39.104 90.3141 36.32 90.3141 32.256V17.376ZM130.835 17.376V21.408H130.931C131.763 19.936 132.867 18.848 134.243 18.144C135.651 17.44 137.203 17.088 138.899 17.088L140.579 17.04V25.44C140.451 25.408 140.323 25.36 140.195 25.296C140.099 25.232 139.987 25.184 139.859 25.152C139.379 24.96 138.899 24.832 138.419 24.768C137.939 24.704 137.427 24.672 136.883 24.672C134.451 24.672 132.835 25.392 132.035 26.832C131.235 28.24 130.835 30 130.835 32.112V42H122.099V17.376H130.835ZM170.777 17.376V42H162.041V39.264H161.945C161.241 40.416 160.281 41.28 159.065 41.856C157.849 42.4 156.585 42.704 155.273 42.768C155.145 42.8 155.017 42.816 154.889 42.816C154.761 42.816 154.633 42.816 154.505 42.816C150.857 42.816 147.865 41.52 145.529 38.928C143.225 36.304 142.073 33.232 142.073 29.712C142.073 26.192 143.209 23.136 145.481 20.544C147.785 17.92 150.761 16.608 154.409 16.608C154.569 16.608 154.729 16.608 154.889 16.608C155.049 16.608 155.209 16.624 155.369 16.656C156.617 16.752 157.833 17.072 159.017 17.616C160.233 18.128 161.241 18.864 162.041 19.824V17.376H170.777ZM156.713 24.144C154.953 24.176 153.577 24.752 152.585 25.872C151.593 26.96 151.097 28.256 151.097 29.76C151.097 31.328 151.593 32.64 152.585 33.696C153.577 34.752 154.953 35.28 156.713 35.28C158.505 35.28 159.881 34.752 160.841 33.696C161.833 32.64 162.329 31.328 162.329 29.76C162.329 28.256 161.833 26.96 160.841 25.872C159.881 24.752 158.505 24.192 156.713 24.192V24.144ZM185.304 2.16V42H176.568V2.16H185.304Z" fill="white"/>
<path d="M189.084 42L195.228 5.808H204.492L211.836 25.152L219.612 5.808H228.972L234.444 42H225.036L222.396 21.168H222.3L213.612 42H209.868L201.564 21.168H201.468L198.444 42H189.084ZM259.039 13.776H247.855V19.824H258.463V27.792H247.855V34.032H259.039V42H238.447V5.808H259.039V13.776ZM264.838 42V5.808H278.182C283.238 5.84 287.558 7.6 291.142 11.088C294.758 14.576 296.566 18.864 296.566 23.952C296.566 29.04 294.758 33.328 291.142 36.816C287.526 40.272 283.206 42 278.182 42H264.838ZM274.246 13.776V34.032H276.358C279.174 34.064 281.606 33.28 283.654 31.68C285.734 30.048 286.774 27.472 286.774 23.952C286.774 20.72 285.814 18.224 283.894 16.464C281.974 14.704 279.494 13.824 276.454 13.824L274.246 13.776Z" fill="#359EFF"/>
<path d="M35.2701 71L40.2621 59.8H42.8221L47.8301 71H45.1101L41.0141 61.112H42.0381L37.9261 71H35.2701ZM37.7661 68.6L38.4541 66.632H44.2141L44.9181 68.6H37.7661ZM48.9921 71V59.8H51.5841V71H48.9921ZM53.7461 67.496V65.496H58.2741V67.496H53.7461ZM60.4139 71V59.8H65.2619C66.2646 59.8 67.1286 59.9653 67.8539 60.296C68.5793 60.616 69.1393 61.08 69.5339 61.688C69.9286 62.296 70.1259 63.0213 70.1259 63.864C70.1259 64.696 69.9286 65.416 69.5339 66.024C69.1393 66.632 68.5793 67.1013 67.8539 67.432C67.1286 67.752 66.2646 67.912 65.2619 67.912H61.8539L63.0059 66.744V71H60.4139ZM63.0059 67.032L61.8539 65.8H65.1179C65.9179 65.8 66.5153 65.6293 66.9099 65.288C67.3046 64.9467 67.5019 64.472 67.5019 63.864C67.5019 63.2453 67.3046 62.7653 66.9099 62.424C66.5153 62.0827 65.9179 61.912 65.1179 61.912H61.8539L63.0059 60.68V67.032ZM75.8808 71.128C74.9635 71.128 74.1475 70.936 73.4328 70.552C72.7288 70.168 72.1688 69.6453 71.7528 68.984C71.3475 68.312 71.1448 67.5493 71.1448 66.696C71.1448 65.832 71.3475 65.0693 71.7528 64.408C72.1688 63.736 72.7288 63.2133 73.4328 62.84C74.1475 62.456 74.9635 62.264 75.8808 62.264C76.7875 62.264 77.5981 62.456 78.3128 62.84C79.0275 63.2133 79.5875 63.7307 79.9928 64.392C80.3981 65.0533 80.6008 65.8213 80.6008 66.696C80.6008 67.5493 80.3981 68.312 79.9928 68.984C79.5875 69.6453 79.0275 70.168 78.3128 70.552C77.5981 70.936 76.7875 71.128 75.8808 71.128ZM75.8808 69.08C76.2968 69.08 76.6701 68.984 77.0008 68.792C77.3315 68.6 77.5928 68.328 77.7848 67.976C77.9768 67.6133 78.0728 67.1867 78.0728 66.696C78.0728 66.1947 77.9768 65.768 77.7848 65.416C77.5928 65.064 77.3315 64.792 77.0008 64.6C76.6701 64.408 76.2968 64.312 75.8808 64.312C75.4648 64.312 75.0915 64.408 74.7608 64.6C74.4301 64.792 74.1635 65.064 73.9608 65.416C73.7688 65.768 73.6728 66.1947 73.6728 66.696C73.6728 67.1867 73.7688 67.6133 73.9608 67.976C74.1635 68.328 74.4301 68.6 74.7608 68.792C75.0915 68.984 75.4648 69.08 75.8808 69.08ZM84.0028 71L80.8988 62.392H83.2508L85.8268 69.8H84.7068L87.3948 62.392H89.5068L92.1148 69.8H90.9948L93.6508 62.392H95.8588L92.7388 71H90.3228L88.0348 64.648H88.7708L86.4028 71H84.0028ZM101.057 71.128C100.075 71.128 99.2115 70.936 98.4648 70.552C97.7288 70.168 97.1581 69.6453 96.7528 68.984C96.3475 68.312 96.1448 67.5493 96.1448 66.696C96.1448 65.832 96.3421 65.0693 96.7368 64.408C97.1421 63.736 97.6915 63.2133 98.3848 62.84C99.0781 62.456 99.8621 62.264 100.737 62.264C101.579 62.264 102.337 62.4453 103.009 62.808C103.691 63.16 104.23 63.672 104.625 64.344C105.019 65.0053 105.217 65.8 105.217 66.728C105.217 66.824 105.211 66.936 105.201 67.064C105.19 67.1813 105.179 67.2933 105.169 67.4H98.1768V65.944H103.857L102.897 66.376C102.897 65.928 102.806 65.5387 102.625 65.208C102.443 64.8773 102.193 64.6213 101.873 64.44C101.553 64.248 101.179 64.152 100.753 64.152C100.326 64.152 99.9475 64.248 99.6168 64.44C99.2968 64.6213 99.0461 64.8827 98.8648 65.224C98.6835 65.5547 98.5928 65.9493 98.5928 66.408V66.792C98.5928 67.2613 98.6941 67.6773 98.8968 68.04C99.1101 68.392 99.4035 68.664 99.7768 68.856C100.161 69.0373 100.609 69.128 101.121 69.128C101.579 69.128 101.979 69.0587 102.321 68.92C102.673 68.7813 102.993 68.5733 103.281 68.296L104.609 69.736C104.214 70.184 103.718 70.5307 103.121 70.776C102.523 71.0107 101.835 71.128 101.057 71.128ZM106.879 71V62.392H109.263V64.824L108.927 64.12C109.183 63.512 109.593 63.0533 110.159 62.744C110.724 62.424 111.412 62.264 112.223 62.264V64.568C112.116 64.5573 112.02 64.552 111.935 64.552C111.849 64.5413 111.759 64.536 111.663 64.536C110.98 64.536 110.425 64.7333 109.999 65.128C109.583 65.512 109.375 66.1147 109.375 66.936V71H106.879ZM117.916 71.128C116.935 71.128 116.071 70.936 115.324 70.552C114.588 70.168 114.018 69.6453 113.612 68.984C113.207 68.312 113.004 67.5493 113.004 66.696C113.004 65.832 113.202 65.0693 113.596 64.408C114.002 63.736 114.551 63.2133 115.244 62.84C115.938 62.456 116.722 62.264 117.596 62.264C118.439 62.264 119.196 62.4453 119.868 62.808C120.551 63.16 121.09 63.672 121.484 64.344C121.879 65.0053 122.076 65.8 122.076 66.728C122.076 66.824 122.071 66.936 122.06 67.064C122.05 67.1813 122.039 67.2933 122.028 67.4H115.036V65.944H120.716L119.756 66.376C119.756 65.928 119.666 65.5387 119.484 65.208C119.303 64.8773 119.052 64.6213 118.732 64.44C118.412 64.248 118.039 64.152 117.612 64.152C117.186 64.152 116.807 64.248 116.476 64.44C116.156 64.6213 115.906 64.8827 115.724 65.224C115.543 65.5547 115.452 65.9493 115.452 66.408V66.792C115.452 67.2613 115.554 67.6773 115.756 68.04C115.97 68.392 116.263 68.664 116.636 68.856C117.02 69.0373 117.468 69.128 117.98 69.128C118.439 69.128 118.839 69.0587 119.18 68.92C119.532 68.7813 119.852 68.5733 120.14 68.296L121.468 69.736C121.074 70.184 120.578 70.5307 119.98 70.776C119.383 71.0107 118.695 71.128 117.916 71.128ZM127.434 71.128C126.623 71.128 125.893 70.9467 125.242 70.584C124.591 70.2107 124.074 69.6933 123.69 69.032C123.317 68.3707 123.13 67.592 123.13 66.696C123.13 65.7893 123.317 65.0053 123.69 64.344C124.074 63.6827 124.591 63.1707 125.242 62.808C125.893 62.4453 126.623 62.264 127.434 62.264C128.159 62.264 128.794 62.424 129.338 62.744C129.882 63.064 130.303 63.5493 130.602 64.2C130.901 64.8507 131.05 65.6827 131.05 66.696C131.05 67.6987 130.906 68.5307 130.618 69.192C130.33 69.8427 129.914 70.328 129.37 70.648C128.837 70.968 128.191 71.128 127.434 71.128ZM127.866 69.08C128.271 69.08 128.639 68.984 128.97 68.792C129.301 68.6 129.562 68.328 129.754 67.976C129.957 67.6133 130.058 67.1867 130.058 66.696C130.058 66.1947 129.957 65.768 129.754 65.416C129.562 65.064 129.301 64.792 128.97 64.6C128.639 64.408 128.271 64.312 127.866 64.312C127.45 64.312 127.077 64.408 126.746 64.6C126.415 64.792 126.149 65.064 125.946 65.416C125.754 65.768 125.658 66.1947 125.658 66.696C125.658 67.1867 125.754 67.6133 125.946 67.976C126.149 68.328 126.415 68.6 126.746 68.792C127.077 68.984 127.45 69.08 127.866 69.08ZM130.122 71V69.24L130.17 66.68L130.01 64.136V59.128H132.506V71H130.122ZM139.523 71V59.8H142.115V71H139.523ZM155.621 62.264C156.304 62.264 156.907 62.4027 157.429 62.68C157.963 62.9467 158.379 63.3627 158.677 63.928C158.987 64.4827 159.141 65.1973 159.141 66.072V71H156.645V66.456C156.645 65.7627 156.501 65.2507 156.213 64.92C155.925 64.5893 155.52 64.424 154.997 64.424C154.635 64.424 154.309 64.5093 154.021 64.68C153.733 64.84 153.509 65.0853 153.349 65.416C153.189 65.7467 153.109 66.168 153.109 66.68V71H150.613V66.456C150.613 65.7627 150.469 65.2507 150.181 64.92C149.904 64.5893 149.504 64.424 148.981 64.424C148.619 64.424 148.293 64.5093 148.005 64.68C147.717 64.84 147.493 65.0853 147.333 65.416C147.173 65.7467 147.093 66.168 147.093 66.68V71H144.597V62.392H146.981V64.744L146.533 64.056C146.832 63.4693 147.253 63.0267 147.797 62.728C148.352 62.4187 148.981 62.264 149.685 62.264C150.475 62.264 151.163 62.4667 151.749 62.872C152.347 63.2667 152.741 63.8747 152.933 64.696L152.053 64.456C152.341 63.784 152.8 63.2507 153.429 62.856C154.069 62.4613 154.8 62.264 155.621 62.264ZM166.659 71V69.32L166.499 68.952V65.944C166.499 65.4107 166.333 64.9947 166.003 64.696C165.683 64.3973 165.187 64.248 164.515 64.248C164.056 64.248 163.603 64.3227 163.155 64.472C162.717 64.6107 162.344 64.8027 162.035 65.048L161.139 63.304C161.608 62.9733 162.173 62.7173 162.835 62.536C163.496 62.3547 164.168 62.264 164.851 62.264C166.163 62.264 167.181 62.5733 167.907 63.192C168.632 63.8107 168.995 64.776 168.995 66.088V71H166.659ZM164.035 71.128C163.363 71.128 162.787 71.016 162.307 70.792C161.827 70.5573 161.459 70.2427 161.203 69.848C160.947 69.4533 160.819 69.0107 160.819 68.52C160.819 68.008 160.941 67.56 161.187 67.176C161.443 66.792 161.843 66.4933 162.387 66.28C162.931 66.056 163.64 65.944 164.515 65.944H166.803V67.4H164.787C164.2 67.4 163.795 67.496 163.571 67.688C163.357 67.88 163.251 68.12 163.251 68.408C163.251 68.728 163.373 68.984 163.619 69.176C163.875 69.3573 164.221 69.448 164.659 69.448C165.075 69.448 165.448 69.352 165.779 69.16C166.109 68.9573 166.349 68.664 166.499 68.28L166.883 69.432C166.701 69.9867 166.371 70.408 165.891 70.696C165.411 70.984 164.792 71.128 164.035 71.128ZM175.364 74.232C174.553 74.232 173.769 74.1307 173.012 73.928C172.265 73.736 171.641 73.4427 171.14 73.048L172.132 71.256C172.495 71.5547 172.953 71.7893 173.508 71.96C174.073 72.1413 174.628 72.232 175.172 72.232C176.057 72.232 176.697 72.0347 177.092 71.64C177.497 71.2453 177.7 70.6587 177.7 69.88V68.584L177.86 66.424L177.828 64.248V62.392H180.196V69.56C180.196 71.16 179.78 72.3387 178.948 73.096C178.116 73.8533 176.921 74.232 175.364 74.232ZM174.98 70.584C174.18 70.584 173.455 70.4133 172.804 70.072C172.164 69.72 171.647 69.2347 171.252 68.616C170.868 67.9867 170.676 67.256 170.676 66.424C170.676 65.5813 170.868 64.8507 171.252 64.232C171.647 63.6027 172.164 63.1173 172.804 62.776C173.455 62.4347 174.18 62.264 174.98 62.264C175.705 62.264 176.345 62.4133 176.9 62.712C177.455 63 177.887 63.4533 178.196 64.072C178.505 64.68 178.66 65.464 178.66 66.424C178.66 67.3733 178.505 68.1573 178.196 68.776C177.887 69.384 177.455 69.8373 176.9 70.136C176.345 70.4347 175.705 70.584 174.98 70.584ZM175.476 68.536C175.913 68.536 176.303 68.4507 176.644 68.28C176.985 68.0987 177.252 67.848 177.444 67.528C177.636 67.208 177.732 66.84 177.732 66.424C177.732 65.9973 177.636 65.6293 177.444 65.32C177.252 65 176.985 64.7547 176.644 64.584C176.303 64.4027 175.913 64.312 175.476 64.312C175.039 64.312 174.649 64.4027 174.308 64.584C173.967 64.7547 173.695 65 173.492 65.32C173.3 65.6293 173.204 65.9973 173.204 66.424C173.204 66.84 173.3 67.208 173.492 67.528C173.695 67.848 173.967 68.0987 174.308 68.28C174.649 68.4507 175.039 68.536 175.476 68.536ZM186.791 71.128C185.81 71.128 184.946 70.936 184.199 70.552C183.463 70.168 182.893 69.6453 182.487 68.984C182.082 68.312 181.879 67.5493 181.879 66.696C181.879 65.832 182.077 65.0693 182.471 64.408C182.877 63.736 183.426 63.2133 184.119 62.84C184.813 62.456 185.597 62.264 186.471 62.264C187.314 62.264 188.071 62.4453 188.743 62.808C189.426 63.16 189.965 63.672 190.359 64.344C190.754 65.0053 190.951 65.8 190.951 66.728C190.951 66.824 190.946 66.936 190.935 67.064C190.925 67.1813 190.914 67.2933 190.903 67.4H183.911V65.944H189.591L188.631 66.376C188.631 65.928 188.541 65.5387 188.359 65.208C188.178 64.8773 187.927 64.6213 187.607 64.44C187.287 64.248 186.914 64.152 186.487 64.152C186.061 64.152 185.682 64.248 185.351 64.44C185.031 64.6213 184.781 64.8827 184.599 65.224C184.418 65.5547 184.327 65.9493 184.327 66.408V66.792C184.327 67.2613 184.429 67.6773 184.631 68.04C184.845 68.392 185.138 68.664 185.511 68.856C185.895 69.0373 186.343 69.128 186.855 69.128C187.314 69.128 187.714 69.0587 188.055 68.92C188.407 68.7813 188.727 68.5733 189.015 68.296L190.343 69.736C189.949 70.184 189.453 70.5307 188.855 70.776C188.258 71.0107 187.57 71.128 186.791 71.128ZM197.32 71V59.8H202.408C203.624 59.8 204.696 60.0347 205.624 60.504C206.552 60.9627 207.278 61.608 207.8 62.44C208.323 63.272 208.584 64.2587 208.584 65.4C208.584 66.5307 208.323 67.5173 207.8 68.36C207.278 69.192 206.552 69.8427 205.624 70.312C204.696 70.7707 203.624 71 202.408 71H197.32ZM199.912 68.872H202.28C203.027 68.872 203.672 68.7333 204.216 68.456C204.771 68.168 205.198 67.7627 205.496 67.24C205.806 66.7173 205.96 66.104 205.96 65.4C205.96 64.6853 205.806 64.072 205.496 63.56C205.198 63.0373 204.771 62.6373 204.216 62.36C203.672 62.072 203.027 61.928 202.28 61.928H199.912V68.872ZM210.363 71V62.392H212.859V71H210.363ZM211.611 61.192C211.152 61.192 210.779 61.0587 210.491 60.792C210.203 60.5253 210.059 60.1947 210.059 59.8C210.059 59.4053 210.203 59.0747 210.491 58.808C210.779 58.5413 211.152 58.408 211.611 58.408C212.07 58.408 212.443 58.536 212.731 58.792C213.019 59.0373 213.163 59.3573 213.163 59.752C213.163 60.168 213.019 60.5147 212.731 60.792C212.454 61.0587 212.08 61.192 211.611 61.192ZM220.455 71V69.32L220.295 68.952V65.944C220.295 65.4107 220.13 64.9947 219.799 64.696C219.479 64.3973 218.983 64.248 218.311 64.248C217.853 64.248 217.399 64.3227 216.951 64.472C216.514 64.6107 216.141 64.8027 215.831 65.048L214.935 63.304C215.405 62.9733 215.97 62.7173 216.631 62.536C217.293 62.3547 217.965 62.264 218.647 62.264C219.959 62.264 220.978 62.5733 221.703 63.192C222.429 63.8107 222.791 64.776 222.791 66.088V71H220.455ZM217.831 71.128C217.159 71.128 216.583 71.016 216.103 70.792C215.623 70.5573 215.255 70.2427 214.999 69.848C214.743 69.4533 214.615 69.0107 214.615 68.52C214.615 68.008 214.738 67.56 214.983 67.176C215.239 66.792 215.639 66.4933 216.183 66.28C216.727 66.056 217.437 65.944 218.311 65.944H220.599V67.4H218.583C217.997 67.4 217.591 67.496 217.367 67.688C217.154 67.88 217.047 68.12 217.047 68.408C217.047 68.728 217.17 68.984 217.415 69.176C217.671 69.3573 218.018 69.448 218.455 69.448C218.871 69.448 219.245 69.352 219.575 69.16C219.906 68.9573 220.146 68.664 220.295 68.28L220.679 69.432C220.498 69.9867 220.167 70.408 219.687 70.696C219.207 70.984 218.589 71.128 217.831 71.128ZM229.161 74.232C228.35 74.232 227.566 74.1307 226.809 73.928C226.062 73.736 225.438 73.4427 224.937 73.048L225.929 71.256C226.292 71.5547 226.75 71.7893 227.305 71.96C227.87 72.1413 228.425 72.232 228.969 72.232C229.854 72.232 230.494 72.0347 230.889 71.64C231.294 71.2453 231.497 70.6587 231.497 69.88V68.584L231.657 66.424L231.625 64.248V62.392H233.993V69.56C233.993 71.16 233.577 72.3387 232.745 73.096C231.913 73.8533 230.718 74.232 229.161 74.232ZM228.777 70.584C227.977 70.584 227.252 70.4133 226.601 70.072C225.961 69.72 225.444 69.2347 225.049 68.616C224.665 67.9867 224.473 67.256 224.473 66.424C224.473 65.5813 224.665 64.8507 225.049 64.232C225.444 63.6027 225.961 63.1173 226.601 62.776C227.252 62.4347 227.977 62.264 228.777 62.264C229.502 62.264 230.142 62.4133 230.697 62.712C231.252 63 231.684 63.4533 231.993 64.072C232.302 64.68 232.457 65.464 232.457 66.424C232.457 67.3733 232.302 68.1573 231.993 68.776C231.684 69.384 231.252 69.8373 230.697 70.136C230.142 70.4347 229.502 70.584 228.777 70.584ZM229.273 68.536C229.71 68.536 230.1 68.4507 230.441 68.28C230.782 68.0987 231.049 67.848 231.241 67.528C231.433 67.208 231.529 66.84 231.529 66.424C231.529 65.9973 231.433 65.6293 231.241 65.32C231.049 65 230.782 64.7547 230.441 64.584C230.1 64.4027 229.71 64.312 229.273 64.312C228.836 64.312 228.446 64.4027 228.105 64.584C227.764 64.7547 227.492 65 227.289 65.32C227.097 65.6293 227.001 65.9973 227.001 66.424C227.001 66.84 227.097 67.208 227.289 67.528C227.492 67.848 227.764 68.0987 228.105 68.28C228.446 68.4507 228.836 68.536 229.273 68.536ZM241.548 62.264C242.231 62.264 242.839 62.4027 243.372 62.68C243.916 62.9467 244.343 63.3627 244.652 63.928C244.961 64.4827 245.116 65.1973 245.116 66.072V71H242.62V66.456C242.62 65.7627 242.465 65.2507 242.156 64.92C241.857 64.5893 241.431 64.424 240.876 64.424C240.481 64.424 240.124 64.5093 239.804 64.68C239.495 64.84 239.249 65.0907 239.068 65.432C238.897 65.7733 238.812 66.2107 238.812 66.744V71H236.316V62.392H238.7V64.776L238.252 64.056C238.561 63.48 239.004 63.0373 239.58 62.728C240.156 62.4187 240.812 62.264 241.548 62.264ZM251.537 71.128C250.62 71.128 249.804 70.936 249.089 70.552C248.385 70.168 247.825 69.6453 247.409 68.984C247.004 68.312 246.801 67.5493 246.801 66.696C246.801 65.832 247.004 65.0693 247.409 64.408C247.825 63.736 248.385 63.2133 249.089 62.84C249.804 62.456 250.62 62.264 251.537 62.264C252.444 62.264 253.254 62.456 253.969 62.84C254.684 63.2133 255.244 63.7307 255.649 64.392C256.054 65.0533 256.257 65.8213 256.257 66.696C256.257 67.5493 256.054 68.312 255.649 68.984C255.244 69.6453 254.684 70.168 253.969 70.552C253.254 70.936 252.444 71.128 251.537 71.128ZM251.537 69.08C251.953 69.08 252.326 68.984 252.657 68.792C252.988 68.6 253.249 68.328 253.441 67.976C253.633 67.6133 253.729 67.1867 253.729 66.696C253.729 66.1947 253.633 65.768 253.441 65.416C253.249 65.064 252.988 64.792 252.657 64.6C252.326 64.408 251.953 64.312 251.537 64.312C251.121 64.312 250.748 64.408 250.417 64.6C250.086 64.792 249.82 65.064 249.617 65.416C249.425 65.768 249.329 66.1947 249.329 66.696C249.329 67.1867 249.425 67.6133 249.617 67.976C249.82 68.328 250.086 68.6 250.417 68.792C250.748 68.984 251.121 69.08 251.537 69.08ZM260.821 71.128C260.085 71.128 259.376 71.0427 258.693 70.872C258.021 70.6907 257.488 70.4667 257.093 70.2L257.925 68.408C258.32 68.6533 258.784 68.856 259.317 69.016C259.861 69.1653 260.395 69.24 260.917 69.24C261.493 69.24 261.899 69.1707 262.133 69.032C262.379 68.8933 262.501 68.7013 262.501 68.456C262.501 68.2533 262.405 68.104 262.213 68.008C262.032 67.9013 261.787 67.8213 261.477 67.768C261.168 67.7147 260.827 67.6613 260.453 67.608C260.091 67.5547 259.723 67.4853 259.349 67.4C258.976 67.304 258.635 67.1653 258.325 66.984C258.016 66.8027 257.765 66.5573 257.573 66.248C257.392 65.9387 257.301 65.5387 257.301 65.048C257.301 64.504 257.456 64.024 257.765 63.608C258.085 63.192 258.544 62.8667 259.141 62.632C259.739 62.3867 260.453 62.264 261.285 62.264C261.872 62.264 262.469 62.328 263.077 62.456C263.685 62.584 264.192 62.7707 264.597 63.016L263.765 64.792C263.349 64.5467 262.928 64.3813 262.501 64.296C262.085 64.2 261.68 64.152 261.285 64.152C260.731 64.152 260.325 64.2267 260.069 64.376C259.813 64.5253 259.685 64.7173 259.685 64.952C259.685 65.1653 259.776 65.3253 259.957 65.432C260.149 65.5387 260.4 65.624 260.709 65.688C261.019 65.752 261.355 65.8107 261.717 65.864C262.091 65.9067 262.464 65.976 262.837 66.072C263.211 66.168 263.547 66.3067 263.845 66.488C264.155 66.6587 264.405 66.8987 264.597 67.208C264.789 67.5067 264.885 67.9013 264.885 68.392C264.885 68.9253 264.725 69.4 264.405 69.816C264.085 70.2213 263.621 70.5413 263.013 70.776C262.416 71.0107 261.685 71.128 260.821 71.128ZM266.425 71V62.392H268.921V71H266.425ZM267.673 61.192C267.215 61.192 266.841 61.0587 266.553 60.792C266.265 60.5253 266.121 60.1947 266.121 59.8C266.121 59.4053 266.265 59.0747 266.553 58.808C266.841 58.5413 267.215 58.408 267.673 58.408C268.132 58.408 268.505 58.536 268.793 58.792C269.081 59.0373 269.225 59.3573 269.225 59.752C269.225 60.168 269.081 60.5147 268.793 60.792C268.516 61.0587 268.143 61.192 267.673 61.192ZM274.134 71.128C273.398 71.128 272.689 71.0427 272.006 70.872C271.334 70.6907 270.801 70.4667 270.406 70.2L271.238 68.408C271.633 68.6533 272.097 68.856 272.63 69.016C273.174 69.1653 273.707 69.24 274.23 69.24C274.806 69.24 275.211 69.1707 275.446 69.032C275.691 68.8933 275.814 68.7013 275.814 68.456C275.814 68.2533 275.718 68.104 275.526 68.008C275.345 67.9013 275.099 67.8213 274.79 67.768C274.481 67.7147 274.139 67.6613 273.766 67.608C273.403 67.5547 273.035 67.4853 272.662 67.4C272.289 67.304 271.947 67.1653 271.638 66.984C271.329 66.8027 271.078 66.5573 270.886 66.248C270.705 65.9387 270.614 65.5387 270.614 65.048C270.614 64.504 270.769 64.024 271.078 63.608C271.398 63.192 271.857 62.8667 272.454 62.632C273.051 62.3867 273.766 62.264 274.598 62.264C275.185 62.264 275.782 62.328 276.39 62.456C276.998 62.584 277.505 62.7707 277.91 63.016L277.078 64.792C276.662 64.5467 276.241 64.3813 275.814 64.296C275.398 64.2 274.993 64.152 274.598 64.152C274.043 64.152 273.638 64.2267 273.382 64.376C273.126 64.5253 272.998 64.7173 272.998 64.952C272.998 65.1653 273.089 65.3253 273.27 65.432C273.462 65.5387 273.713 65.624 274.022 65.688C274.331 65.752 274.667 65.8107 275.03 65.864C275.403 65.9067 275.777 65.976 276.15 66.072C276.523 66.168 276.859 66.3067 277.158 66.488C277.467 66.6587 277.718 66.8987 277.91 67.208C278.102 67.5067 278.198 67.9013 278.198 68.392C278.198 68.9253 278.038 69.4 277.718 69.816C277.398 70.2213 276.934 70.5413 276.326 70.776C275.729 71.0107 274.998 71.128 274.134 71.128Z" fill="white"/>
</svg>
