<svg width="243" height="243" viewBox="0 0 243 243" fill="none" xmlns="http://www.w3.org/2000/svg">
<path d="M234.028 109.822C232.038 89.8461 224.709 70.7742 212.811 54.6075C213.891 52.7786 214.466 50.6961 214.479 48.5723C214.479 45.3518 213.199 42.2632 210.923 39.9859C208.646 37.7086 205.558 36.4293 202.339 36.4293C200.633 36.4333 198.947 36.8003 197.394 37.5059C190.173 30.927 182.124 25.3207 173.45 20.8294C172.711 18.3282 171.186 16.1321 169.1 14.5672C167.014 13.0023 164.48 12.1522 161.872 12.1431C159.891 12.1589 157.944 12.6665 156.207 13.6205C144.968 9.9659 133.224 8.10145 121.406 8.0954C116.942 8.10662 112.482 8.38911 108.052 8.94135C102.058 3.26594 94.1382 0.0713166 85.885 0C69.5164 0 55.4058 12.7988 51.4887 30.7949C36.1115 35.5145 25.1856 51.5636 25.1856 70.0575C25.1928 71.7433 25.2982 73.4274 25.5013 75.101C10.5288 80.1444 0.00755807 95.8818 0.00755807 114.096C-0.12671 121.172 1.52988 128.166 4.82329 134.429C8.1167 140.692 12.94 146.02 18.8446 149.919C14.7403 156.839 12.5815 164.741 12.5966 172.788C12.5966 195.245 28.5322 213.516 48.1178 213.516C49.3437 213.514 50.5683 213.434 51.7841 213.277C56.0573 230.65 69.8604 242.862 85.885 242.862C94.1382 242.79 102.058 239.596 108.052 233.92C112.482 234.473 116.942 234.755 121.406 234.766C133.224 234.76 144.968 232.896 156.207 229.241C157.944 230.195 159.891 230.703 161.872 230.719C164.48 230.71 167.014 229.859 169.1 228.294C171.186 226.73 172.711 224.533 173.45 222.032C182.124 217.541 190.173 211.935 197.394 205.356C198.947 206.061 200.633 206.428 202.339 206.432C205.558 206.432 208.646 205.153 210.923 202.876C213.199 200.599 214.479 197.51 214.479 194.289C214.466 192.166 213.891 190.083 212.811 188.254C224.709 172.087 232.038 153.016 234.028 133.04C236.554 132.323 238.777 130.802 240.361 128.707C241.944 126.612 242.801 124.057 242.801 121.431C242.801 118.804 241.944 116.25 240.361 114.155C238.777 112.059 236.554 110.538 234.028 109.822ZM202.339 182.146C201.763 182.163 201.19 182.221 200.623 182.32L175.938 143.543C175.574 142.971 175.072 142.5 174.478 142.172C173.884 141.845 173.218 141.672 172.539 141.669H121.406V125.479H219.27C219.829 127.064 220.71 128.516 221.858 129.744C223.006 130.972 224.395 131.95 225.939 132.615C224.055 150.803 217.399 168.17 206.644 182.956C205.271 182.424 203.811 182.15 202.339 182.146ZM161.872 206.432C160.248 206.43 158.641 206.756 157.146 207.392L121.406 164.49V149.765H170.318L193.436 186.101C191.742 187.893 190.649 190.17 190.311 192.613C189.972 195.056 190.404 197.544 191.546 199.729C185.792 204.917 179.475 209.443 172.713 213.224C171.721 211.193 170.179 209.479 168.263 208.279C166.347 207.078 164.133 206.439 161.872 206.432ZM157.146 35.47C159.994 36.6791 163.197 36.7481 166.094 35.6626C168.991 34.5771 171.361 32.4201 172.713 29.6372C179.475 33.4186 185.792 37.9451 191.546 43.1323C190.404 45.318 189.972 47.806 190.311 50.2491C190.649 52.6922 191.742 54.9685 193.436 56.7608L170.318 93.097H121.406V78.3715L157.146 35.47ZM206.644 59.9059C217.402 74.6967 224.058 92.0695 225.939 110.263C224.396 110.926 223.008 111.901 221.86 113.126C220.713 114.352 219.831 115.801 219.27 117.383H121.406V101.192H172.539C173.22 101.193 173.89 101.021 174.487 100.693C175.084 100.366 175.589 99.8929 175.955 99.3183L200.639 60.5414C202.667 60.9161 204.76 60.6896 206.66 59.8897L206.644 59.9059ZM206.385 48.5723C206.385 49.3729 206.148 50.1555 205.703 50.8211C205.259 51.4867 204.627 52.0056 203.887 52.312C203.148 52.6183 202.334 52.6985 201.549 52.5423C200.764 52.3861 200.043 52.0006 199.477 51.4345C198.911 50.8684 198.526 50.1472 198.37 49.362C198.214 48.5768 198.294 47.763 198.6 47.0234C198.906 46.2838 199.425 45.6516 200.09 45.2068C200.756 44.762 201.538 44.5247 202.339 44.5247C203.412 44.5247 204.441 44.9511 205.2 45.7102C205.959 46.4693 206.385 47.4988 206.385 48.5723ZM161.872 20.2385C162.673 20.2385 163.455 20.4759 164.121 20.9207C164.786 21.3654 165.305 21.9976 165.611 22.7372C165.917 23.4768 165.997 24.2907 165.841 25.0759C165.685 25.861 165.3 26.5822 164.734 27.1483C164.168 27.7144 163.447 28.0999 162.662 28.2561C161.877 28.4123 161.063 28.3321 160.324 28.0258C159.584 27.7194 158.952 27.2006 158.508 26.535C158.063 25.8693 157.826 25.0868 157.826 24.2862C157.826 23.2127 158.252 22.1831 159.011 21.424C159.77 20.6649 160.799 20.2385 161.872 20.2385ZM150.445 20.3518C149.868 21.9117 149.638 23.5783 149.769 25.2361C149.901 26.8939 150.391 28.5033 151.206 29.9529L121.406 65.7265V40.732C121.447 32.1215 118.986 23.6845 114.325 16.4458C116.643 16.2758 119.007 16.1908 121.406 16.1908C131.233 16.2093 141.008 17.61 150.445 20.3518ZM85.885 234.766C72.6485 234.766 61.326 223.481 58.9668 207.93C58.94 207.846 58.909 207.764 58.8738 207.683C62.0988 205.169 66.0589 203.781 70.1477 203.733C73.2247 203.823 76.2405 204.614 78.9656 206.047C81.6906 207.479 84.053 209.514 85.8728 211.998L92.1937 206.938C89.624 203.498 86.3015 200.69 82.4804 198.732C78.6592 196.773 74.4407 195.714 70.1477 195.637C66.2209 195.697 62.3517 196.592 58.7971 198.262C55.2424 199.932 52.0835 202.339 49.5301 205.323C49.0607 205.356 48.5791 205.42 48.1178 205.42C32.9956 205.42 20.6898 190.78 20.6898 172.788C20.6553 164.888 23.2143 157.195 27.9738 150.89C28.2282 150.52 28.4184 150.109 28.5362 149.676C35.0108 140.366 42.9827 135.278 51.2864 135.278C60.5086 135.278 69.3343 141.528 76.1407 152.877L83.0807 148.708C74.7568 134.829 63.4626 127.183 51.2864 127.183C40.8784 127.183 31.1342 132.809 23.3202 143.094C18.5226 139.959 14.606 135.649 11.9423 130.574C9.2786 125.499 7.95624 119.827 8.1008 114.096C7.84413 107.815 9.40218 101.592 12.5885 96.1735C15.7749 90.7545 20.4546 86.3685 26.0678 83.5403C29.1262 87.3186 32.9559 90.4002 37.3008 92.5788C41.6457 94.7574 46.4056 95.9829 51.2621 96.1733C51.8731 96.1733 52.476 96.153 53.1073 96.1125C64.535 95.3596 75.1736 87.7216 83.0523 74.6111L76.1245 70.4299C69.6499 81.2048 61.2815 87.4545 52.5772 88.0292C49.0089 88.0956 45.4683 87.3916 42.1966 85.9652C38.925 84.5388 35.9992 82.4237 33.6188 79.7639C34.0187 79.0068 34.1608 78.1399 34.0235 77.2948C33.554 74.9161 33.3115 72.4982 33.2991 70.0737C33.0403 63.7348 34.6316 57.4577 37.8788 52.0081C41.1259 46.5585 45.8886 42.1721 51.5858 39.3841C56.8356 44.3055 63.7343 47.0874 70.9286 47.184C71.2847 47.184 71.6449 47.184 72.005 47.1597C75.9313 46.9672 79.7694 45.9269 83.2557 44.1103C86.742 42.2937 89.7939 39.7437 92.2017 36.6357L85.885 31.5356C84.1978 33.744 82.0531 35.5613 79.598 36.8629C77.1428 38.1645 74.4353 38.9196 71.6611 39.0765C67.059 39.2341 62.5467 37.7763 58.9061 34.9559C58.9061 34.8668 58.9709 34.7899 58.9871 34.6968C61.4231 19.2832 72.7335 8.0954 85.885 8.0954C101.007 8.0954 113.313 22.7359 113.313 40.732V202.134C113.313 220.126 101.007 234.766 85.885 234.766ZM114.325 226.432C118.987 219.194 121.447 210.756 121.406 202.146V177.135L151.206 212.909C150.39 214.359 149.9 215.969 149.768 217.628C149.637 219.286 149.868 220.953 150.445 222.514C141.008 225.255 131.233 226.654 121.406 226.671C119.007 226.671 116.643 226.586 114.325 226.432ZM161.872 222.623C161.072 222.623 160.29 222.386 159.624 221.941C158.959 221.496 158.44 220.864 158.134 220.125C157.828 219.385 157.747 218.571 157.904 217.786C158.06 217.001 158.445 216.279 159.011 215.713C159.577 215.147 160.298 214.762 161.083 214.606C161.868 214.449 162.682 214.53 163.421 214.836C164.16 215.142 164.792 215.661 165.237 216.327C165.682 216.992 165.919 217.775 165.919 218.576C165.919 219.649 165.493 220.679 164.734 221.438C163.975 222.197 162.946 222.623 161.872 222.623ZM202.339 198.337C201.538 198.337 200.756 198.1 200.09 197.655C199.425 197.21 198.906 196.578 198.6 195.838C198.294 195.099 198.214 194.285 198.37 193.5C198.526 192.715 198.911 191.993 199.477 191.427C200.043 190.861 200.764 190.476 201.549 190.319C202.334 190.163 203.148 190.243 203.887 190.55C204.627 190.856 205.259 191.375 205.703 192.041C206.148 192.706 206.385 193.489 206.385 194.289C206.385 195.363 205.959 196.392 205.2 197.152C204.441 197.911 203.412 198.337 202.339 198.337ZM230.665 125.479C229.865 125.479 229.082 125.241 228.417 124.796C227.751 124.352 227.233 123.719 226.926 122.98C226.62 122.24 226.54 121.426 226.696 120.641C226.852 119.856 227.238 119.135 227.804 118.569C228.37 118.003 229.091 117.617 229.876 117.461C230.66 117.305 231.474 117.385 232.214 117.691C232.953 117.998 233.585 118.516 234.03 119.182C234.474 119.848 234.712 120.63 234.712 121.431C234.712 122.504 234.285 123.534 233.526 124.293C232.767 125.052 231.738 125.479 230.665 125.479Z" fill="#FFDC00"/>
</svg>
