<svg width="17" height="17" viewBox="0 0 17 17" fill="none" xmlns="http://www.w3.org/2000/svg">
<path d="M6.37467 15.5833H12.7497C13.3376 15.5833 13.8405 15.2291 14.053 14.7191L16.1922 9.72538C16.2559 9.56246 16.2913 9.39246 16.2913 9.20829V7.79163C16.2913 7.01246 15.6538 6.37496 14.8747 6.37496H10.4051L11.078 3.13788L11.0993 2.91121C11.0993 2.62079 10.9788 2.35163 10.7876 2.16038L10.0368 1.41663L5.36884 6.08454C5.11384 6.33954 4.95801 6.69371 4.95801 7.08329V14.1666C4.95801 14.9458 5.59551 15.5833 6.37467 15.5833ZM6.37467 7.08329L9.44884 4.00913L8.49967 7.79163H14.8747V9.20829L12.7497 14.1666H6.37467V7.08329ZM0.708008 7.08329H3.54134V15.5833H0.708008V7.08329Z" fill="#359EFF"/>
</svg>
