<svg width="17" height="17" viewBox="0 0 17 17" fill="none" xmlns="http://www.w3.org/2000/svg">
<path d="M10.6253 1.41671L4.25033 1.41671C3.66241 1.41671 3.15949 1.77087 2.94699 2.28087L0.807825 7.27462C0.744076 7.43754 0.708659 7.60754 0.708659 7.79171L0.708659 9.20837C0.708659 9.98754 1.34616 10.625 2.12533 10.625L6.59491 10.625L5.92199 13.8621L5.90074 14.0888C5.90074 14.3792 6.02116 14.6484 6.21241 14.8396L6.96324 15.5834L11.6312 10.9155C11.8862 10.6605 12.042 10.3063 12.042 9.91671L12.042 2.83337C12.042 2.05421 11.4045 1.41671 10.6253 1.41671ZM10.6253 9.91671L7.55116 12.9909L8.50033 9.20837L2.12533 9.20837L2.12533 7.79171L4.25033 2.83337L10.6253 2.83337L10.6253 9.91671ZM16.292 9.91671H13.4587L13.4587 1.41671H16.292V9.91671Z" fill="#359EFF"/>
</svg>
